# xmcd
#
# Track frame offsets: 
#        150
#        33182
#        56327
#        73565
#        89975
#        116287
#        141402
#        161955
#        186405
#
# Disc length: 2749 seconds
#
# Revision: 37
# Processed by: cddbd v1.5.2PL0 Copyright (c) Steve Scherf et al.
# Submitted via: ExactAudioCopyFreeDBPlugin 1.0
#
DISCID=830abb09
DTITLE=Sade - Love Deluxe
DYEAR=1992
DGENRE=R&B
TTITLE0=No Ordinary Love
TTITLE1=Feel No Pain
TTITLE2=I Couldn't Love You More
TTITLE3=Like A Tattoo
TTITLE4=Kiss Of Life
TTITLE5=Cherish The Day
TTITLE6=Pearls
TTITLE7=Bullet Proof Soul
TTITLE8=Mermaid
EXTD="no ordinary love" is from the movie: Indecent Proposal
EXTT0=
EXTT1=
EXTT2=
EXTT3=
EXTT4=
EXTT5=
EXTT6=
EXTT7=
EXTT8=
PLAYORDER=
